<?xml version="1.0" encoding="UTF-8"?>
<svg width="700pt" height="700pt" version="1.1" viewBox="0 0 700 700" xmlns="http://www.w3.org/2000/svg" xmlns:xlink="http://www.w3.org/1999/xlink">
  <g>
    <path stroke="#ffffff" fill="#ffffff" d="m620.51 166.63c-0.0625-0.16406-0.19141-0.3125-0.25391-0.46484-10.836-17.496-30.043-29.301-52.09-29.301h-88.434c-6.9219 0-12.551 5.6289-12.551 12.59 0 6.9258 5.6289 12.555 12.551 12.555h88.434c8.9375 0 17.051 3.3984 23.359 8.7734l-145.77 145.83c-0.09375 0.0625-0.19141 0.09375-0.25391 0.15625-0.09375 0.09375-0.09375 0.19141-0.15625 0.25391l-69.691 69.719c-13.688 13.68-37.637 13.648-51.285 0l-69.883-69.879s-0.039063-0.0625-0.0625-0.09375c0 0-0.035157 0-0.0625-0.035156l-145.93-145.92c6.3281-5.4023 14.426-8.8047 23.387-8.8047h68.266c6.9336 0 12.562-5.6289 12.562-12.555 0-6.9648-5.6289-12.59-12.562-12.59h-68.266c-20.355 0-38.316 10.086-49.492 25.395 0 0-0.09375 0.0625-0.125 0.089844-0.12891 0.12891-0.15625 0.25391-0.25391 0.37109-0.68359 0.94141-1.3164 1.9414-1.9414 2.9062-0.20703 0.41016-0.46094 0.77344-0.61719 1.1875-5.5508 9.2383-8.9609 19.926-8.9609 31.477v258.88c0 10.426 2.8438 20.082 7.4297 28.695 0.28125 0.77734 0.75 1.4336 1.1875 2.1523 10.684 18.176 30.195 30.543 52.77 30.543h436.35c22.457 0 41.906-12.242 52.617-30.262 0.52734-0.84375 1.0938-1.6289 1.3789-2.5312 4.5859-8.5859 7.3984-18.238 7.3984-28.598v-258.88c0.007812-11.621-3.4023-22.395-9.0508-31.668zm-524.94 290.54v-258.88c0-1.5078 0.24609-2.9414 0.4375-4.3672l131.76 131.74-132.13 132.21c0-0.21875-0.066407-0.45703-0.066407-0.71094zm472.6 36.25h-436.35c-9.957 0-19.02-4.0273-25.574-10.586l139.27-139.36 61.09 61.047c11.586 11.594 26.98 17.961 43.406 17.961s31.848-6.3672 43.406-17.961l61.027-61.016 139.33 139.33c-6.5625 6.5273-15.617 10.586-25.605 10.586zm36.281-36.25c0 0.25391-0.089844 0.46094-0.089844 0.71094l-132.16-132.18 131.79-131.84c0.18359 1.4609 0.46094 2.9297 0.46094 4.4297l-0.003907 258.88z" />
    <path stroke="#ffffff" fill="#ffffff" d="m348.64 257.5c49.684 0 82.812-16.832 99.484-50.461h-23.922c-15.73 19.852-41.531 29.785-77.375 29.785-31.137 0-54.777-7.5-70.918-22.484-16.145-14.965-24.203-34.266-24.203-57.898 0-25.266 7.6758-47.309 23.043-66.113 15.391-18.828 39.09-28.23 71.109-28.23 22.512 0 40.785 5.7852 54.836 17.367 14.062 11.613 21.105 27.418 21.105 47.492 0 17.961-5.1445 32.297-15.328 43.07-10.238 10.781-18.324 16.18-24.266 16.18-2.8789 0-4.3359-1.875-4.3359-5.6523 0-1.6289 0.53906-4.8984 1.5586-9.8438l16.902-80.574h-29.641l-2.75 12.398c-6.4414-10.207-16.301-15.328-29.602-15.328-17.461 0-31.969 7.6562-43.562 22.98-11.586 15.367-17.395 32.57-17.395 51.75 0 13.855 3.9883 25.195 11.895 33.977 7.9023 8.7695 18.391 13.176 31.512 13.176 11.465 0 21.609-4.2188 30.477-12.738 2.1562 8.5273 8.9258 12.738 20.367 12.738 23.762 0 42.125-8.9258 55.086-26.762 12.926-17.859 19.383-35.945 19.383-54.309 0-24.457-8.2422-45-24.691-61.645-16.457-16.637-40.074-24.949-70.828-24.949-36.07 0-64.27 10.988-84.621 32.938-20.391 21.984-30.535 48.844-30.535 80.512 0 30.285 9.582 54.957 28.789 74.039 19.223 19.059 48.699 28.586 88.426 28.586zm0-87.406c-6.0664 12.363-14.711 18.52-25.891 18.52-13.402 0-20.086-9.2734-20.086-27.887 0-11.027 2.7812-22.641 8.3047-34.871 5.5273-12.215 14.219-18.312 26.012-18.312 13.832 0 20.766 8.7852 20.766 26.324 0.007812 11.832-3.0117 23.918-9.1055 36.227z" />
  </g>
</svg>