<svg width="20" height="21" viewBox="0 0 20 21" fill="none" xmlns="http://www.w3.org/2000/svg">
<g clip-path="url(#clip0_1787_1785)">
<path d="M13.2875 8.33957H9.46417V0.855408H13.2875C15.3508 0.855408 17.0292 2.53374 17.0292 4.59707C17.0292 6.66041 15.3508 8.33957 13.2875 8.33957V8.33957ZM10.69 7.11374H13.2875C14.675 7.11374 15.8033 5.98457 15.8033 4.59791C15.8033 3.21124 14.6742 2.08207 13.2875 2.08207H10.69V7.11374V7.11374ZM10.69 8.33957H6.8675C4.80417 8.33957 3.12583 6.66124 3.12583 4.59791C3.12583 2.53457 4.80417 0.855408 6.8675 0.855408H10.6908V8.33957H10.69ZM6.8675 2.08124C5.48 2.08124 4.35167 3.21041 4.35167 4.59707C4.35167 5.98374 5.48 7.11374 6.8675 7.11374H9.465V2.08124H6.8675ZM10.69 14.5971H6.8675C4.80417 14.5971 3.12583 12.9187 3.12583 10.8554C3.12583 8.79207 4.80417 7.11374 6.8675 7.11374H10.6908V14.5971H10.69ZM6.8675 8.33957C5.48 8.33957 4.35167 9.46874 4.35167 10.8554C4.35167 12.2421 5.48083 13.3712 6.8675 13.3712H9.465V8.33957H6.8675ZM6.8875 20.8554C4.81333 20.8554 3.125 19.1771 3.125 17.1137C3.125 15.0504 4.80333 13.3721 6.86667 13.3721H10.69V17.0729C10.69 19.1587 8.98417 20.8554 6.8875 20.8554V20.8554ZM6.8675 14.5971C6.20053 14.598 5.56113 14.8633 5.08951 15.3349C4.61789 15.8065 4.35255 16.4459 4.35167 17.1129C4.35167 18.5004 5.48917 19.6287 6.88833 19.6287C8.30917 19.6287 9.46583 18.4821 9.46583 17.0721V14.5971H6.8675V14.5971ZM13.2875 14.5971H13.2058C11.1425 14.5971 9.46417 12.9187 9.46417 10.8554C9.46417 8.79207 11.1425 7.11374 13.2058 7.11374H13.2875C15.3508 7.11374 17.0292 8.79207 17.0292 10.8554C17.0292 12.9187 15.3508 14.5971 13.2875 14.5971V14.5971ZM13.2067 8.33957C11.8192 8.33957 10.6908 9.46874 10.6908 10.8554C10.6908 12.2421 11.82 13.3712 13.2067 13.3712H13.2883C14.6758 13.3712 15.8042 12.2421 15.8042 10.8554C15.8042 9.46874 14.675 8.33957 13.2883 8.33957H13.2067V8.33957Z" fill="url(#paint0_linear_1787_1785)"/>
</g>
<defs>
<linearGradient id="paint0_linear_1787_1785" x1="3.125" y1="0.855408" x2="16.6313" y2="0.590246" gradientUnits="userSpaceOnUse">
<stop stop-color="#765EED"/>
<stop offset="0.989583" stop-color="#05EDFC"/>
<stop offset="0.989683" stop-color="#28F1FE"/>
</linearGradient>
<clipPath id="clip0_1787_1785">
<rect width="20" height="20" fill="white" transform="translate(0 0.855408)"/>
</clipPath>
</defs>
</svg>
