<svg width="40" height="43" viewBox="0 0 40 43" fill="none" xmlns="http://www.w3.org/2000/svg">
<path d="M26.4165 9.50537L20.2689 7.78933C20.093 7.74024 19.907 7.74024 19.7311 7.78933L13.5835 9.50537C13.2741 9.59171 12.9422 9.52424 12.6911 9.324L3.20525 1.75875C2.46883 1.17143 1.40297 1.83503 1.60501 2.75505L4.62448 16.5049C4.65478 16.6429 4.6555 16.7858 4.62658 16.9241L2.39668 27.5874C2.33288 27.8924 2.41497 28.2098 2.61868 28.4457L11.2035 38.386C11.3087 38.5078 11.4418 38.6024 11.5913 38.6618L19.631 41.8535C19.868 41.9476 20.132 41.9476 20.369 41.8535L28.4087 38.6618C28.5582 38.6024 28.6913 38.5078 28.7965 38.386L37.3813 28.4457C37.585 28.2098 37.6671 27.8924 37.6033 27.5874L35.3734 16.9241C35.3445 16.7858 35.3452 16.6429 35.3755 16.5049L38.395 2.75505C38.597 1.83503 37.5312 1.17143 36.7947 1.75875L27.3089 9.324C27.0578 9.52424 26.7259 9.59171 26.4165 9.50537Z" stroke="#28F1FE" stroke-width="2"/>
<path d="M14.2334 14.2H18.0734L20.3294 30.136H20.6174L22.8734 14.2H26.7134V31H24.8414V15.064H24.5534L22.2974 31H18.6494L16.3934 15.064H16.1054V31H14.2334V14.2Z" fill="#28F1FE"/>
</svg>
