<svg width="20" height="21" viewBox="0 0 20 21" fill="none" xmlns="http://www.w3.org/2000/svg">
<g clip-path="url(#clip0_1787_1884)">
<g clip-path="url(#clip1_1787_1884)">
<path d="M16.7967 0.924532C19.3242 1.36203 20.0408 3.08953 19.9875 4.89953L20 4.8737L18.8625 19.7804L4.075 20.7937H4.08833C2.86083 20.742 0.125 20.6295 0 16.8045L1.37083 14.3045L3.72 19.7929L4.13917 20.7695L6.47667 13.1495L6.45167 13.1554L6.465 13.1304L14.1775 15.5937L13.0142 11.0679L12.1892 7.81786L19.5392 7.3437L19.0267 6.9187L13.75 2.61703L16.7992 0.916199L16.7967 0.924532ZM0 16.7629V16.7845V16.7604V16.7629ZM4.275 5.08287C7.2425 2.1387 11.0725 0.398699 12.5433 1.88287C14.0117 3.3637 12.4558 6.97037 9.4825 9.91287C6.51333 12.8562 2.73 14.6912 1.2625 13.2104C-0.209167 11.7295 1.3 8.02953 4.2725 5.08537L4.275 5.08287Z" fill="url(#paint0_linear_1787_1884)"/>
</g>
</g>
<defs>
<linearGradient id="paint0_linear_1787_1884" x1="0" y1="0.916199" x2="19.4195" y2="0.364419" gradientUnits="userSpaceOnUse">
<stop stop-color="#765EED"/>
<stop offset="0.989583" stop-color="#05EDFC"/>
<stop offset="0.989683" stop-color="#28F1FE"/>
</linearGradient>
<clipPath id="clip0_1787_1884">
<rect width="20" height="20" fill="white" transform="translate(0 0.855408)"/>
</clipPath>
<clipPath id="clip1_1787_1884">
<rect width="20" height="20" fill="white" transform="translate(0 0.855408)"/>
</clipPath>
</defs>
</svg>
