<svg width="20" height="21" viewBox="0 0 20 21" fill="none" xmlns="http://www.w3.org/2000/svg">
<g clip-path="url(#clip0_1787_2546)">
<path d="M11.8583 10.8588C11.8583 11.3528 11.6621 11.8266 11.3129 12.1761C10.9636 12.5255 10.4899 12.7219 9.99583 12.7221C9.50165 12.7221 9.0277 12.5258 8.67826 12.1763C8.32881 11.8269 8.1325 11.353 8.1325 10.8588C8.1325 10.3647 8.3287 9.89091 8.67796 9.54149C9.02723 9.19207 9.50096 8.99566 9.995 8.99544C10.4892 8.99544 10.9631 9.19175 11.3126 9.5412C11.662 9.89064 11.8583 10.3646 11.8583 10.8588ZM14.065 1.95044C12.9433 1.95044 11.4758 2.75044 9.99167 4.13544C8.50833 2.75794 7.04 1.96711 5.91917 1.96711C5.5775 1.96711 5.26667 2.04461 4.9975 2.19877C3.85167 2.85961 3.595 4.91877 4.18667 7.50294C1.65 8.28627 0 9.53877 0 10.8588C0 12.1838 1.65833 13.4396 4.2025 14.2171C3.61583 16.8113 3.8775 18.8738 5.02583 19.5338C5.2925 19.6896 5.60083 19.7629 5.94417 19.7629C7.065 19.7629 8.53333 18.9629 10.0175 17.5763C11.5008 18.9546 12.9692 19.7454 14.09 19.7454C14.4317 19.7454 14.7425 19.6704 15.0117 19.5163C16.1567 18.8563 16.4142 16.7971 15.8225 14.2121C18.35 13.4354 20 12.1804 20 10.8588C20 9.53377 18.3417 8.27794 15.7975 7.49877C16.3842 4.90711 16.1225 2.84294 14.9742 2.18211C14.7092 2.02877 14.4008 1.95127 14.0642 1.95044H14.065ZM14.0608 2.85877V2.86377C14.2483 2.86377 14.3992 2.90044 14.5258 2.96961C15.0808 3.28794 15.3217 4.49877 15.1342 6.05627C15.0892 6.43961 15.0158 6.84377 14.9258 7.25627C14.1258 7.05961 13.2542 6.90877 12.3367 6.81127C11.7867 6.05711 11.2158 5.37211 10.6408 4.77211C11.9675 3.53877 13.2133 2.86211 14.0617 2.85961L14.0608 2.85877ZM5.91917 2.87544C6.7625 2.87544 8.01417 3.54877 9.34417 4.77544C8.7725 5.37544 8.2025 6.05627 7.66083 6.81044C6.73833 6.90794 5.86583 7.05877 5.06667 7.25877C4.97333 6.85044 4.90417 6.45544 4.855 6.07544C4.66333 4.51877 4.9 3.30877 5.45 2.98627C5.60833 2.91127 5.78333 2.88044 5.91917 2.87627V2.87544ZM9.9875 5.41711C10.3667 5.80711 10.7458 6.24377 11.1208 6.72044C10.7542 6.70377 10.3792 6.69211 10 6.69211C9.61667 6.69211 9.2375 6.70044 8.86667 6.72044C9.23333 6.24377 9.6125 5.80711 9.9875 5.41627V5.41711ZM10 7.60544C10.6167 7.60544 11.2308 7.63377 11.835 7.68294C12.1733 8.16794 12.5033 8.68544 12.8208 9.23294C13.1308 9.76627 13.4125 10.3079 13.6692 10.8546C13.4125 11.4004 13.1308 11.9463 12.825 12.4796C12.5083 13.0296 12.1808 13.5529 11.8417 14.0379C11.235 14.0904 10.62 14.1196 10 14.1196C9.38333 14.1196 8.76917 14.0904 8.165 14.0421C7.82667 13.5571 7.49667 13.0388 7.17917 12.4921C6.86917 11.9588 6.5875 11.4171 6.33083 10.8704C6.58333 10.3229 6.86917 9.77627 7.175 9.24211C7.49167 8.69211 7.81917 8.17044 8.15833 7.68544C8.765 7.63211 9.38 7.60377 10 7.60377V7.60544ZM6.97083 7.81711C6.77083 8.13127 6.57083 8.45294 6.38417 8.78377C6.19667 9.10877 6.02167 9.43544 5.855 9.76211C5.63417 9.21544 5.44667 8.67044 5.29167 8.13961C5.825 8.01461 6.3875 7.90377 6.97083 7.81794V7.81711ZM13.0208 7.81711C13.6 7.90294 14.1583 8.00877 14.6925 8.13961C14.5425 8.66627 14.355 9.20794 14.1425 9.75044C13.9758 9.42544 13.8008 9.09794 13.6092 8.77211C13.4217 8.44544 13.2217 8.12711 13.0217 7.81711H13.0208ZM15.5733 8.37961C15.9767 8.50461 16.36 8.64377 16.7192 8.79461C18.1625 9.41127 19.0958 10.2179 19.0958 10.8579C19.0917 11.4979 18.1583 12.3079 16.715 12.9204C16.365 13.0704 15.9817 13.2054 15.5858 13.3313C15.3525 12.5329 15.0475 11.7013 14.6692 10.8479C15.0442 10.0004 15.3442 9.17294 15.5733 8.37794V8.37961ZM4.41083 8.38294C4.6425 9.18294 4.94833 10.0138 5.3275 10.8663C4.9525 11.7138 4.65083 12.5413 4.4225 13.3363C4.01917 13.2113 3.63583 13.0713 3.28083 12.9196C1.8375 12.3054 0.904167 11.4979 0.904167 10.8579C0.904167 10.2179 1.8375 9.40627 3.28083 8.79461C3.63083 8.64461 4.01417 8.50961 4.41083 8.38294ZM14.1425 11.9496C14.3633 12.4971 14.5508 13.0429 14.7058 13.5729C14.1725 13.7038 13.6092 13.8146 13.0258 13.8979C13.2258 13.5854 13.4258 13.2629 13.6133 12.9329C13.8008 12.6079 13.9758 12.2763 14.1433 11.9496H14.1425ZM5.855 11.9663C6.02167 12.2929 6.19667 12.6188 6.38833 12.9454C6.58 13.2704 6.77583 13.5888 6.97583 13.8979C6.39667 13.8129 5.83833 13.7063 5.30417 13.5763C5.45417 13.0513 5.6425 12.5079 5.85417 11.9654L5.855 11.9663ZM14.9333 14.4554C15.0267 14.8663 15.1 15.2621 15.145 15.6413C15.3367 17.1979 15.1 18.4079 14.55 18.7313C14.4275 18.8063 14.2683 18.8379 14.0808 18.8379C13.2375 18.8379 11.9858 18.1654 10.6558 16.9379C11.2275 16.3379 11.7975 15.6579 12.3392 14.9046C13.2617 14.8063 14.1342 14.6546 14.9333 14.4546V14.4554ZM5.075 14.4638C5.875 14.6588 6.74667 14.8096 7.66417 14.9071C8.21417 15.6613 8.785 16.3463 9.36 16.9454C8.03083 18.1813 6.78333 18.8579 5.935 18.8579C5.75167 18.8538 5.59667 18.8163 5.47417 18.7479C4.91917 18.4313 4.67833 17.2196 4.86583 15.6621C4.91083 15.2788 4.98417 14.8754 5.07417 14.4638H5.075ZM8.875 14.9971C9.24167 15.0138 9.61667 15.0254 9.99583 15.0254C10.3792 15.0254 10.7583 15.0171 11.1292 14.9971C10.7625 15.4738 10.3833 15.9096 10.0083 16.3013C9.62917 15.9096 9.25 15.4738 8.875 14.9971Z" fill="url(#paint0_linear_1787_2546)"/>
</g>
<defs>
<linearGradient id="paint0_linear_1787_2546" x1="0" y1="1.95044" x2="19.4157" y2="1.33481" gradientUnits="userSpaceOnUse">
<stop stop-color="#765EED"/>
<stop offset="0.989583" stop-color="#05EDFC"/>
<stop offset="0.989683" stop-color="#28F1FE"/>
</linearGradient>
<clipPath id="clip0_1787_2546">
<rect width="20" height="20" fill="white" transform="translate(0 0.855408)"/>
</clipPath>
</defs>
</svg>
