<svg width="20" height="21" viewBox="0 0 20 21" fill="none" xmlns="http://www.w3.org/2000/svg">
<g clip-path="url(#clip0_1787_2536)">
<g clip-path="url(#clip1_1787_2536)">
<path d="M0.9375 0.855408C0.418333 0.855408 0 1.27374 0 1.79291V19.9179C0 20.4371 0.418333 20.8554 0.9375 20.8554H19.0625C19.5817 20.8554 20 20.4371 20 19.9179V1.79291C20 1.27374 19.5817 0.855408 19.0625 0.855408H0.9375ZM15.4067 8.98041C15.9167 8.98041 16.3683 9.01124 16.7625 9.07291C17.1343 9.12861 17.4991 9.22359 17.8508 9.35624V11.4046C17.682 11.2878 17.5026 11.1871 17.315 11.1037C17.1215 11.0167 16.9218 10.9443 16.7175 10.8871C16.3305 10.7792 15.9309 10.7232 15.5292 10.7204C15.2792 10.7204 15.0517 10.7437 14.8467 10.7921C14.664 10.8312 14.4887 10.8992 14.3275 10.9937C14.1858 11.0804 14.0775 11.1846 14 11.3054C13.9221 11.4272 13.8815 11.5692 13.8833 11.7137C13.8833 11.8771 13.9275 12.0246 14.0133 12.1546C14.1 12.2846 14.2233 12.4079 14.3825 12.5246C14.5417 12.6412 14.735 12.7546 14.9625 12.8662C15.19 12.9787 15.4475 13.0946 15.7342 13.2129C16.1258 13.3771 16.4775 13.5521 16.7892 13.7362C17.1008 13.9212 17.3683 14.1304 17.5917 14.3637C17.815 14.5962 17.985 14.8621 18.1033 15.1612C18.2217 15.4604 18.2817 15.8079 18.2817 16.2054C18.2817 16.7529 18.1775 17.2137 17.9708 17.5854C17.7689 17.952 17.4791 18.2626 17.1275 18.4896C16.7485 18.7299 16.3284 18.8983 15.8883 18.9862C15.4167 19.0862 14.9192 19.1362 14.3967 19.1362C13.8824 19.1385 13.3691 19.0927 12.8633 18.9996C12.4258 18.9239 12.0014 18.7855 11.6033 18.5887V16.3971C12.3565 17.038 13.3119 17.3922 14.3008 17.3971C14.5783 17.3971 14.8208 17.3721 15.0275 17.3221C15.235 17.2721 15.4075 17.2021 15.5467 17.1137C15.685 17.0237 15.7883 16.9187 15.8575 16.7971C15.9339 16.6554 15.9687 16.495 15.9578 16.3344C15.9469 16.1738 15.8907 16.0196 15.7958 15.8896C15.672 15.7257 15.5206 15.5847 15.3483 15.4729C15.1347 15.3313 14.9098 15.2076 14.6758 15.1029C14.3985 14.9763 14.1188 14.8551 13.8367 14.7396C13.0717 14.4204 12.5017 14.0296 12.1258 13.5687C11.7508 13.1079 11.5625 12.5504 11.5625 11.8979C11.5625 11.3862 11.665 10.9471 11.87 10.5796C12.075 10.2121 12.3533 9.90957 12.7067 9.67207C13.0804 9.42553 13.4953 9.248 13.9317 9.14791C14.415 9.03396 14.9101 8.97773 15.4067 8.98041ZM2.8125 9.13707H10.7817V10.9421H7.92167V18.9804H5.6575V10.9421H2.8125V9.13707Z" fill="url(#paint0_linear_1787_2536)"/>
</g>
</g>
<defs>
<linearGradient id="paint0_linear_1787_2536" x1="0" y1="0.855408" x2="19.4197" y2="0.307003" gradientUnits="userSpaceOnUse">
<stop stop-color="#765EED"/>
<stop offset="0.989583" stop-color="#05EDFC"/>
<stop offset="0.989683" stop-color="#28F1FE"/>
</linearGradient>
<clipPath id="clip0_1787_2536">
<rect width="20" height="20" fill="white" transform="translate(0 0.855408)"/>
</clipPath>
<clipPath id="clip1_1787_2536">
<rect width="20" height="20" fill="white" transform="translate(0 0.855408)"/>
</clipPath>
</defs>
</svg>
